<svg width="13" height="14" viewBox="0 0 13 14" fill="none" xmlns="http://www.w3.org/2000/svg">
<path d="M12.7078 4.29375C12.6151 4.2004 12.5048 4.12637 12.3833 4.07595C12.2618 4.02553 12.1315 3.99971 12 4H10V3.5C10 2.57174 9.63125 1.6815 8.97487 1.02513C8.3185 0.368749 7.42826 0 6.5 0C5.57174 0 4.6815 0.368749 4.02513 1.02513C3.36875 1.6815 3 2.57174 3 3.5V4H1C0.734784 4 0.48043 4.10536 0.292893 4.29289C0.105357 4.48043 0 4.73478 0 5V11.75C0 12.9688 1.03125 14 2.25 14H10.75C11.3395 14.0002 11.9057 13.7697 12.3275 13.3578C12.5398 13.1553 12.7088 12.9119 12.8244 12.6423C12.9399 12.3727 12.9997 12.0824 13 11.7891V5C13.0004 4.86881 12.9748 4.73884 12.9246 4.61761C12.8745 4.49638 12.8008 4.38631 12.7078 4.29375ZM4 3.5C4 2.83696 4.26339 2.20107 4.73223 1.73223C5.20107 1.26339 5.83696 1 6.5 1C7.16304 1 7.79893 1.26339 8.26777 1.73223C8.73661 2.20107 9 2.83696 9 3.5V4H4V3.5Z" fill="white"/>
</svg>
