<svg fill="none" height="40" viewBox="0 0 48 40" width="48" xmlns="http://www.w3.org/2000/svg"><path d="m30.5077 12.2798c-.2917-.2913-.6477-.4472-1.0275-.4472s-.7461.1593-1.0343.4472l-6.6535 6.6497c-.2849.2846-.4375.6572-.4307 1.0535-.0068.4066.1458.7826.4307 1.0671l6.6535 6.6464c.2882.2879.6578.4471 1.0343.4471.3798 0 .7325-.1558 1.0275-.4471.2984-.2981.4544-.6606.4476-1.0468-.0068-.3726-.1662-.7317-.4476-1.0129l-5.6531-5.647 5.6531-5.647c.5968-.5996.5968-1.4634 0-2.063zm-9.9972 1.0163c0-.393-.1458-.7622-.4137-1.0332-.2713-.2744-.6409-.4235-1.0445-.4235-.8308 0-1.4582.6267-1.4582 1.4567v13.3672c0 .8435.6138 1.4566 1.4582 1.4566.4239 0 .7868-.1457 1.0581-.4234.2577-.2676.4001-.6335.4001-1.0332z" fill="#171b1e"/><g clip-rule="evenodd" fill="#00a58e" fill-rule="evenodd"><path d="m46.2427 18.8685c-.8817 0-1.6006.7182-1.6006 1.5989 0 .8808.7189 1.5989 1.6006 1.5989s1.6006-.7181 1.6006-1.5989c0-.8807-.7155-1.5989-1.6006-1.5989z"/><path d="m43.9197 28.5061c-.2509-.1863-.5493-.2846-.8613-.2846-.4612 0-.8987.2202-1.17.5895-1.821 2.4661-4.3949 4.5359-7.4436 5.9824-3.1673 1.504-6.7891 2.3001-10.4821 2.3001-5.6327 0-10.9195-1.8089-14.88038-5.0982-1.90245-1.5752-3.39117-3.4045-4.42547-5.437-1.06143-2.08-1.59724-4.2886-1.60063-6.5583 0-2.273.5392-4.4783 1.60063-6.5617 1.55993-3.0589 4.16096-5.67068 7.51825-7.55415 3.4827-1.95122 7.5589-2.98103 11.7944-2.98103 3.693 0 7.3215.79945 10.4957 2.3103 3.052 1.45325 5.6293 3.52981 7.447 6.00608.2713.3726.7121.5928 1.1733.5928.312 0 .607-.0982.858-.2811.6477-.4743.7867-1.3855.312-2.02917-2.1026-2.86246-5.0563-5.25067-8.539-6.91057-3.5641-1.697151-7.6233-2.59146-11.747-2.59146-6.3109 0-12.2556 2.04946-16.74215 5.76558-2.20765 1.82927-3.94392 3.96681-5.16135 6.35502-1.271685 2.4932-1.916006 5.1423-1.916006 7.8794s.644321 5.3862 1.916006 7.8794c1.82445 3.5739 4.82902 6.6057 8.6882 8.7669 3.9134 2.1918 8.4846 3.3537 13.2153 3.3537 4.1101 0 8.1625-.8909 11.7199-2.5813 3.4759-1.6497 6.4262-4.0312 8.5321-6.8801.4816-.6436.3425-1.5549-.3018-2.0325z"/></g></svg>